<svg width="15" height="14" viewBox="0 0 15 14" fill="none" xmlns="http://www.w3.org/2000/svg">
<path d="M14.4201 9.87161H5.11537L5.58256 8.92004L13.3451 8.90598C13.6076 8.90598 13.8326 8.71848 13.8794 8.45911L14.9544 2.44192C14.9826 2.28411 14.9404 2.12161 14.8372 1.99817C14.7863 1.93742 14.7227 1.88848 14.6509 1.85476C14.5792 1.82103 14.5009 1.80332 14.4216 1.80286L4.54662 1.77004L4.46224 1.37317C4.40912 1.12004 4.18099 0.935669 3.92162 0.935669H1.50756C1.36127 0.935669 1.22098 0.99378 1.11754 1.09722C1.0141 1.20066 0.955994 1.34095 0.955994 1.48723C0.955994 1.63351 1.0141 1.77381 1.11754 1.87724C1.22098 1.98068 1.36127 2.03879 1.50756 2.03879H3.47474L3.84349 3.79192L4.75131 8.18723L3.58256 10.095C3.52186 10.177 3.4853 10.2742 3.47702 10.3759C3.46874 10.4775 3.48906 10.5794 3.53568 10.67C3.62943 10.856 3.81849 10.9732 4.02787 10.9732H5.00912C4.79993 11.251 4.68694 11.5894 4.68724 11.9372C4.68724 12.8216 5.40599 13.5404 6.29037 13.5404C7.17474 13.5404 7.89349 12.8216 7.89349 11.9372C7.89349 11.5888 7.77787 11.2497 7.57162 10.9732H10.0888C9.87962 11.251 9.76662 11.5894 9.76693 11.9372C9.76693 12.8216 10.4857 13.5404 11.3701 13.5404C12.2544 13.5404 12.9732 12.8216 12.9732 11.9372C12.9732 11.5888 12.8576 11.2497 12.6513 10.9732H14.4216C14.7247 10.9732 14.9732 10.7263 14.9732 10.4216C14.9723 10.2755 14.9136 10.1356 14.81 10.0326C14.7064 9.92956 14.5662 9.87169 14.4201 9.87161V9.87161ZM4.77631 2.85754L13.7732 2.88723L12.8919 7.82161L5.82474 7.83411L4.77631 2.85754ZM6.29037 12.431C6.01849 12.431 5.79662 12.2091 5.79662 11.9372C5.79662 11.6654 6.01849 11.4435 6.29037 11.4435C6.56224 11.4435 6.78412 11.6654 6.78412 11.9372C6.78412 12.0682 6.7321 12.1938 6.6395 12.2864C6.54691 12.379 6.42132 12.431 6.29037 12.431V12.431ZM11.3701 12.431C11.0982 12.431 10.8763 12.2091 10.8763 11.9372C10.8763 11.6654 11.0982 11.4435 11.3701 11.4435C11.6419 11.4435 11.8638 11.6654 11.8638 11.9372C11.8638 12.0682 11.8118 12.1938 11.7192 12.2864C11.6266 12.379 11.501 12.431 11.3701 12.431V12.431Z" fill="white"/>
</svg>
